M48
;GenerationSoftware,Autodesk,EAGLE,9.6.2*%
;CreationDate,2022-06-08T16:35:47Z*%
FMAT,2
ICI,OFF
METRIC,TZ,000.000
T3C0.305
T2C0.700
T1C3.048
%
G90
M71
T1
X60706Y55626
X3810Y16510
X11938Y16510
X20066Y16510
X28194Y16510
X36322Y16510
X44450Y16510
X52578Y16510
X60706Y16510
X3810Y36068
X11938Y36068
X20066Y36068
X28194Y36068
X36322Y36068
X44450Y36068
X52578Y36068
X60706Y36068
X3810Y55626
X11938Y55626
X20066Y55626
X28194Y55626
X36322Y55626
X44450Y55626
X52578Y55626
X60706Y114300
X3810Y75184
X11938Y75184
X20066Y75184
X28194Y75184
X36322Y75184
X44450Y75184
X52578Y75184
X60706Y75184
X3810Y94742
X11938Y94742
X20066Y94742
X28194Y94742
X36322Y94742
X44450Y94742
X52578Y94742
X60706Y94742
X3810Y114300
X11938Y114300
X20066Y114300
X28194Y114300
X36322Y114300
X44450Y114300
X52578Y114300
X60706Y153416
X3810Y133858
X11938Y133858
X20066Y133858
X28194Y133858
X36322Y133858
X44450Y133858
X52578Y133858
X60706Y133858
X3810Y153416
X11938Y153416
X20066Y153416
X28194Y153416
X36322Y153416
X44450Y153416
X52578Y153416
T2
X63246Y150876
X1270Y13970
X6350Y13970
X9398Y13970
X14478Y13970
X17526Y13970
X22606Y13970
X25654Y13970
X30734Y13970
X33782Y13970
X38862Y13970
X41910Y13970
X46990Y13970
X50038Y13970
X55118Y13970
X58166Y13970
X63246Y13970
X1270Y33528
X6350Y33528
X9398Y33528
X14478Y33528
X17526Y33528
X22606Y33528
X25654Y33528
X30734Y33528
X33782Y33528
X38862Y33528
X41910Y33528
X46990Y33528
X50038Y33528
X55118Y33528
X58166Y33528
X63246Y33528
X1270Y53086
X6350Y53086
X9398Y53086
X14478Y53086
X17526Y53086
X22606Y53086
X25654Y53086
X30734Y53086
X33782Y53086
X38862Y53086
X41910Y53086
X46990Y53086
X50038Y53086
X55118Y53086
X58166Y53086
X63246Y53086
X1270Y72644
X6350Y72644
X9398Y72644
X14478Y72644
X17526Y72644
X22606Y72644
X25654Y72644
X30734Y72644
X33782Y72644
X38862Y72644
X41910Y72644
X46990Y72644
X50038Y72644
X55118Y72644
X58166Y72644
X63246Y72644
X1270Y92202
X6350Y92202
X9398Y92202
X14478Y92202
X17526Y92202
X22606Y92202
X25654Y92202
X30734Y92202
X33782Y92202
X38862Y92202
X41910Y92202
X46990Y92202
X50038Y92202
X55118Y92202
X58166Y92202
X63246Y92202
X1270Y111760
X6350Y111760
X9398Y111760
X14478Y111760
X17526Y111760
X22606Y111760
X25654Y111760
X30734Y111760
X33782Y111760
X38862Y111760
X41910Y111760
X46990Y111760
X50038Y111760
X55118Y111760
X58166Y111760
X63246Y111760
X1270Y131318
X6350Y131318
X9398Y131318
X14478Y131318
X17526Y131318
X22606Y131318
X25654Y131318
X30734Y131318
X33782Y131318
X38862Y131318
X41910Y131318
X46990Y131318
X50038Y131318
X55118Y131318
X58166Y131318
X63246Y131318
X1270Y150876
X6350Y150876
X9398Y150876
X14478Y150876
X17526Y150876
X22606Y150876
X25654Y150876
X30734Y150876
X33782Y150876
X38862Y150876
X41910Y150876
X46990Y150876
X50038Y150876
X55118Y150876
X58166Y150876
T3
X13995Y27610
X15011Y23393
X12929Y22022
X13767Y31750
X9982Y25908
X12421Y29820
X10287Y21311
X13716Y22098
X11430Y21996
X11684Y25756
X11684Y29058
X14732Y29693
X14021Y23292
X10820Y25806
X15011Y24384
X12497Y27381
X9195Y28067
X12446Y21260
X17323Y28753
X17323Y22454
X18212Y23546
X22123Y27610
X23139Y23393
X21057Y22022
X21895Y31750
X18110Y25908
X20549Y29820
X18415Y21311
X21844Y22098
X19558Y21996
X19812Y25756
X19812Y29058
X22860Y29693
X22149Y23292
X18948Y25806
X23139Y24384
X20625Y27381
X17323Y28067
X20574Y21260
X25451Y28753
X25451Y22454
X26340Y23546
X30251Y27610
X31267Y23393
X29185Y22022
X30023Y31750
X26238Y25908
X28677Y29820
X26543Y21311
X29972Y22098
X27686Y21996
X27940Y25756
X27940Y29058
X30988Y29693
X30277Y23292
X27076Y25806
X31267Y24384
X28753Y27381
X25451Y28067
X28702Y21260
X33579Y28753
X33579Y22454
X34468Y23546
X38379Y27610
X39395Y23393
X37313Y22022
X38151Y31750
X34366Y25908
X36805Y29820
X34671Y21311
X38100Y22098
X35814Y21996
X36068Y25756
X36068Y29058
X39116Y29693
X38405Y23292
X35204Y25806
X39395Y24384
X36881Y27381
X33579Y28067
X36830Y21260
X41707Y28753
X41707Y22454
X42596Y23546
X46507Y27610
X47523Y23393
X45441Y22022
X46279Y31750
X42494Y25908
X44933Y29820
X42799Y21311
X46228Y22098
X43942Y21996
X44196Y25756
X44196Y29058
X47244Y29693
X46533Y23292
X43332Y25806
X47523Y24384
X45009Y27381
X41707Y28067
X44958Y21260
X49835Y28753
X49835Y22454
X50724Y23546
X54635Y27610
X55651Y23393
X53569Y22022
X54407Y31750
X50622Y25908
X53061Y29820
X50927Y21311
X54356Y22098
X52070Y21996
X52324Y25756
X52324Y29058
X55372Y29693
X54661Y23292
X51460Y25806
X55651Y24384
X53137Y27381
X49835Y28067
X53086Y21260
X57963Y28753
X57963Y22454
X58852Y23546
X62763Y27610
X63779Y23393
X61697Y22022
X62535Y31750
X58750Y25908
X61189Y29820
X59055Y21311
X62484Y22098
X60198Y21996
X60452Y25756
X60452Y29058
X63500Y29693
X62789Y23292
X59588Y25806
X63779Y24384
X61265Y27381
X57963Y28067
X61214Y21260
X1067Y48311
X1067Y42012
X1956Y43104
X5867Y47168
X6883Y42951
X4801Y41580
X5639Y51308
X1854Y45466
X4293Y49378
X2159Y40869
X5588Y41656
X3302Y41554
X3556Y45314
X3556Y48616
X6604Y49251
X5893Y42850
X2692Y45364
X6883Y43942
X4369Y46939
X1067Y47625
X4318Y40818
X9195Y48311
X9195Y42012
X10084Y43104
X13995Y47168
X15011Y42951
X12929Y41580
X13767Y51308
X9982Y45466
X12421Y49378
X10287Y40869
X13716Y41656
X11430Y41554
X11684Y45314
X11684Y48616
X14732Y49251
X14021Y42850
X10820Y45364
X15011Y43942
X12497Y46939
X9195Y47625
X12446Y40818
X17323Y48311
X17323Y42012
X18212Y43104
X22123Y47168
X23139Y42951
X21057Y41580
X21895Y51308
X18110Y45466
X20549Y49378
X18415Y40869
X21844Y41656
X19558Y41554
X19812Y45314
X19812Y48616
X22860Y49251
X22149Y42850
X18948Y45364
X23139Y43942
X20625Y46939
X17323Y47625
X20574Y40818
X25451Y48311
X25451Y42012
X26340Y43104
X30251Y47168
X31267Y42951
X29185Y41580
X30023Y51308
X26238Y45466
X28677Y49378
X26543Y40869
X29972Y41656
X27686Y41554
X27940Y45314
X27940Y48616
X30988Y49251
X30277Y42850
X27076Y45364
X31267Y43942
X28753Y46939
X25451Y47625
X28702Y40818
X33579Y48311
X33579Y42012
X34468Y43104
X38379Y47168
X39395Y42951
X37313Y41580
X38151Y51308
X34366Y45466
X36805Y49378
X34671Y40869
X38100Y41656
X35814Y41554
X36068Y45314
X36068Y48616
X39116Y49251
X38405Y42850
X35204Y45364
X39395Y43942
X36881Y46939
X33579Y47625
X36830Y40818
X41707Y48311
X41707Y42012
X42596Y43104
X46507Y47168
X47523Y42951
X45441Y41580
X46279Y51308
X42494Y45466
X44933Y49378
X42799Y40869
X46228Y41656
X43942Y41554
X44196Y45314
X44196Y48616
X47244Y49251
X46533Y42850
X43332Y45364
X47523Y43942
X45009Y46939
X41707Y47625
X44958Y40818
X49835Y48311
X49835Y42012
X50724Y43104
X54635Y47168
X55651Y42951
X53569Y41580
X54407Y51308
X50622Y45466
X53061Y49378
X50927Y40869
X54356Y41656
X52070Y41554
X52324Y45314
X52324Y48616
X55372Y49251
X54661Y42850
X51460Y45364
X55651Y43942
X53137Y46939
X49835Y47625
X53086Y40818
X57963Y48311
X57963Y42012
X58852Y43104
X62763Y47168
X63779Y42951
X61697Y41580
X62535Y51308
X58750Y45466
X61189Y49378
X59055Y40869
X62484Y41656
X60198Y41554
X60452Y45314
X60452Y48616
X63500Y49251
X62789Y42850
X59588Y45364
X63779Y43942
X61265Y46939
X57963Y47625
X61214Y40818
X1067Y67869
X1067Y61570
X1956Y62662
X5867Y66726
X6883Y62509
X4801Y61138
X5639Y70866
X1854Y65024
X4293Y68936
X2159Y60427
X5588Y61214
X3302Y61112
X3556Y64872
X3556Y68174
X6604Y68809
X5893Y62408
X2692Y64922
X6883Y63500
X4369Y66497
X1067Y67183
X4318Y60376
X9195Y67869
X9195Y61570
X10084Y62662
X13995Y66726
X15011Y62509
X12929Y61138
X13767Y70866
X9982Y65024
X12421Y68936
X10287Y60427
X13716Y61214
X11430Y61112
X11684Y64872
X11684Y68174
X14732Y68809
X14021Y62408
X10820Y64922
X15011Y63500
X12497Y66497
X9195Y67183
X12446Y60376
X17323Y67869
X17323Y61570
X18212Y62662
X22123Y66726
X23139Y62509
X21057Y61138
X21895Y70866
X18110Y65024
X20549Y68936
X18415Y60427
X21844Y61214
X19558Y61112
X19812Y64872
X19812Y68174
X22860Y68809
X22149Y62408
X18948Y64922
X23139Y63500
X20625Y66497
X17323Y67183
X20574Y60376
X25451Y67869
X25451Y61570
X26340Y62662
X30251Y66726
X31267Y62509
X29185Y61138
X30023Y70866
X26238Y65024
X28677Y68936
X26543Y60427
X29972Y61214
X27686Y61112
X27940Y64872
X27940Y68174
X30988Y68809
X30277Y62408
X27076Y64922
X31267Y63500
X28753Y66497
X25451Y67183
X28702Y60376
X33579Y67869
X33579Y61570
X34468Y62662
X38379Y66726
X39395Y62509
X37313Y61138
X38151Y70866
X34366Y65024
X36805Y68936
X34671Y60427
X38100Y61214
X35814Y61112
X36068Y64872
X36068Y68174
X39116Y68809
X38405Y62408
X35204Y64922
X39395Y63500
X36881Y66497
X33579Y67183
X36830Y60376
X41707Y67869
X41707Y61570
X42596Y62662
X46507Y66726
X47523Y62509
X45441Y61138
X46279Y70866
X42494Y65024
X44933Y68936
X42799Y60427
X46228Y61214
X43942Y61112
X44196Y64872
X44196Y68174
X47244Y68809
X46533Y62408
X43332Y64922
X47523Y63500
X45009Y66497
X41707Y67183
X44958Y60376
X49835Y67869
X49835Y61570
X50724Y62662
X54635Y66726
X55651Y62509
X53569Y61138
X54407Y70866
X50622Y65024
X53061Y68936
X50927Y60427
X54356Y61214
X52070Y61112
X52324Y64872
X52324Y68174
X55372Y68809
X54661Y62408
X51460Y64922
X55651Y63500
X53137Y66497
X49835Y67183
X53086Y60376
X57963Y67869
X57963Y61570
X58852Y62662
X62763Y66726
X63779Y62509
X61697Y61138
X62535Y70866
X58750Y65024
X61189Y68936
X59055Y60427
X62484Y61214
X60198Y61112
X60452Y64872
X60452Y68174
X63500Y68809
X62789Y62408
X59588Y64922
X63779Y63500
X61265Y66497
X57963Y67183
X61214Y60376
X1067Y87427
X1067Y81128
X1956Y82220
X5867Y86284
X6883Y82067
X4801Y80696
X5639Y90424
X1854Y84582
X4293Y88494
X2159Y79985
X5588Y80772
X3302Y80670
X3556Y84430
X3556Y87732
X6604Y88367
X5893Y81966
X2692Y84480
X6883Y83058
X4369Y86055
X1067Y86741
X4318Y79934
X9195Y87427
X9195Y81128
X10084Y82220
X13995Y86284
X15011Y82067
X12929Y80696
X13767Y90424
X9982Y84582
X12421Y88494
X10287Y79985
X13716Y80772
X11430Y80670
X11684Y84430
X11684Y87732
X14732Y88367
X14021Y81966
X10820Y84480
X15011Y83058
X12497Y86055
X9195Y86741
X12446Y79934
X17323Y87427
X17323Y81128
X18212Y82220
X22123Y86284
X23139Y82067
X21057Y80696
X21895Y90424
X18110Y84582
X20549Y88494
X18415Y79985
X21844Y80772
X19558Y80670
X19812Y84430
X19812Y87732
X22860Y88367
X22149Y81966
X18948Y84480
X23139Y83058
X20625Y86055
X17323Y86741
X20574Y79934
X25451Y87427
X25451Y81128
X26340Y82220
X30251Y86284
X31267Y82067
X29185Y80696
X30023Y90424
X26238Y84582
X28677Y88494
X26543Y79985
X29972Y80772
X27686Y80670
X27940Y84430
X27940Y87732
X30988Y88367
X30277Y81966
X27076Y84480
X31267Y83058
X28753Y86055
X25451Y86741
X28702Y79934
X33579Y87427
X33579Y81128
X34468Y82220
X38379Y86284
X39395Y82067
X37313Y80696
X38151Y90424
X34366Y84582
X36805Y88494
X34671Y79985
X38100Y80772
X35814Y80670
X36068Y84430
X36068Y87732
X39116Y88367
X38405Y81966
X35204Y84480
X39395Y83058
X36881Y86055
X33579Y86741
X36830Y79934
X41707Y87427
X41707Y81128
X42596Y82220
X46507Y86284
X47523Y82067
X45441Y80696
X46279Y90424
X42494Y84582
X44933Y88494
X42799Y79985
X46228Y80772
X43942Y80670
X44196Y84430
X44196Y87732
X47244Y88367
X46533Y81966
X43332Y84480
X47523Y83058
X45009Y86055
X41707Y86741
X44958Y79934
X49835Y87427
X49835Y81128
X50724Y82220
X54635Y86284
X55651Y82067
X53569Y80696
X54407Y90424
X50622Y84582
X53061Y88494
X50927Y79985
X54356Y80772
X52070Y80670
X52324Y84430
X52324Y87732
X55372Y88367
X54661Y81966
X51460Y84480
X55651Y83058
X53137Y86055
X49835Y86741
X53086Y79934
X57963Y87427
X57963Y81128
X58852Y82220
X62763Y86284
X63779Y82067
X61697Y80696
X62535Y90424
X58750Y84582
X61189Y88494
X59055Y79985
X62484Y80772
X60198Y80670
X60452Y84430
X60452Y87732
X63500Y88367
X62789Y81966
X59588Y84480
X63779Y83058
X61265Y86055
X57963Y86741
X61214Y79934
X1067Y106985
X1067Y100686
X1956Y101778
X5867Y105842
X6883Y101625
X4801Y100254
X5639Y109982
X1854Y104140
X4293Y108052
X2159Y99543
X5588Y100330
X3302Y100228
X3556Y103988
X3556Y107290
X6604Y107925
X5893Y101524
X2692Y104038
X6883Y102616
X4369Y105613
X1067Y106299
X4318Y99492
X9195Y106985
X9195Y100686
X10084Y101778
X13995Y105842
X15011Y101625
X12929Y100254
X13767Y109982
X9982Y104140
X12421Y108052
X10287Y99543
X13716Y100330
X11430Y100228
X11684Y103988
X11684Y107290
X14732Y107925
X14021Y101524
X10820Y104038
X15011Y102616
X12497Y105613
X9195Y106299
X12446Y99492
X17323Y106985
X17323Y100686
X18212Y101778
X22123Y105842
X23139Y101625
X21057Y100254
X21895Y109982
X18110Y104140
X20549Y108052
X18415Y99543
X21844Y100330
X19558Y100228
X19812Y103988
X19812Y107290
X22860Y107925
X22149Y101524
X18948Y104038
X23139Y102616
X20625Y105613
X17323Y106299
X20574Y99492
X25451Y106985
X25451Y100686
X26340Y101778
X30251Y105842
X31267Y101625
X29185Y100254
X30023Y109982
X26238Y104140
X28677Y108052
X26543Y99543
X29972Y100330
X27686Y100228
X27940Y103988
X27940Y107290
X30988Y107925
X30277Y101524
X27076Y104038
X31267Y102616
X28753Y105613
X25451Y106299
X28702Y99492
X33579Y106985
X33579Y100686
X34468Y101778
X38379Y105842
X39395Y101625
X37313Y100254
X38151Y109982
X34366Y104140
X36805Y108052
X34671Y99543
X38100Y100330
X35814Y100228
X36068Y103988
X36068Y107290
X39116Y107925
X38405Y101524
X35204Y104038
X39395Y102616
X36881Y105613
X33579Y106299
X36830Y99492
X41707Y106985
X41707Y100686
X42596Y101778
X46507Y105842
X47523Y101625
X45441Y100254
X46279Y109982
X42494Y104140
X44933Y108052
X42799Y99543
X46228Y100330
X43942Y100228
X44196Y103988
X44196Y107290
X47244Y107925
X46533Y101524
X43332Y104038
X47523Y102616
X45009Y105613
X41707Y106299
X44958Y99492
X49835Y106985
X49835Y100686
X50724Y101778
X54635Y105842
X55651Y101625
X53569Y100254
X54407Y109982
X50622Y104140
X53061Y108052
X50927Y99543
X54356Y100330
X52070Y100228
X52324Y103988
X52324Y107290
X55372Y107925
X54661Y101524
X51460Y104038
X55651Y102616
X53137Y105613
X49835Y106299
X53086Y99492
X57963Y106985
X57963Y100686
X58852Y101778
X62763Y105842
X63779Y101625
X61697Y100254
X62535Y109982
X58750Y104140
X61189Y108052
X59055Y99543
X62484Y100330
X60198Y100228
X60452Y103988
X60452Y107290
X63500Y107925
X62789Y101524
X59588Y104038
X63779Y102616
X61265Y105613
X57963Y106299
X61214Y99492
X1067Y126543
X1067Y120244
X1956Y121336
X5867Y125400
X6883Y121183
X4801Y119812
X5639Y129540
X1854Y123698
X4293Y127610
X2159Y119101
X5588Y119888
X3302Y119786
X3556Y123546
X3556Y126848
X6604Y127483
X5893Y121082
X2692Y123596
X6883Y122174
X4369Y125171
X1067Y125857
X4318Y119050
X9195Y126543
X9195Y120244
X10084Y121336
X13995Y125400
X15011Y121183
X12929Y119812
X13767Y129540
X9982Y123698
X12421Y127610
X10287Y119101
X13716Y119888
X11430Y119786
X11684Y123546
X11684Y126848
X14732Y127483
X14021Y121082
X10820Y123596
X15011Y122174
X12497Y125171
X9195Y125857
X12446Y119050
X17323Y126543
X17323Y120244
X18212Y121336
X22123Y125400
X23139Y121183
X21057Y119812
X21895Y129540
X18110Y123698
X20549Y127610
X18415Y119101
X21844Y119888
X19558Y119786
X19812Y123546
X19812Y126848
X22860Y127483
X22149Y121082
X18948Y123596
X23139Y122174
X20625Y125171
X17323Y125857
X20574Y119050
X25451Y126543
X25451Y120244
X26340Y121336
X30251Y125400
X31267Y121183
X29185Y119812
X30023Y129540
X26238Y123698
X28677Y127610
X26543Y119101
X29972Y119888
X27686Y119786
X27940Y123546
X27940Y126848
X30988Y127483
X30277Y121082
X27076Y123596
X31267Y122174
X28753Y125171
X25451Y125857
X28702Y119050
X33579Y126543
X33579Y120244
X34468Y121336
X38379Y125400
X39395Y121183
X37313Y119812
X38151Y129540
X34366Y123698
X36805Y127610
X34671Y119101
X38100Y119888
X35814Y119786
X36068Y123546
X36068Y126848
X39116Y127483
X38405Y121082
X35204Y123596
X39395Y122174
X36881Y125171
X33579Y125857
X36830Y119050
X41707Y126543
X41707Y120244
X42596Y121336
X46507Y125400
X47523Y121183
X45441Y119812
X46279Y129540
X42494Y123698
X44933Y127610
X42799Y119101
X46228Y119888
X43942Y119786
X44196Y123546
X44196Y126848
X47244Y127483
X46533Y121082
X43332Y123596
X47523Y122174
X45009Y125171
X41707Y125857
X44958Y119050
X49835Y126543
X49835Y120244
X50724Y121336
X54635Y125400
X55651Y121183
X53569Y119812
X54407Y129540
X50622Y123698
X53061Y127610
X50927Y119101
X54356Y119888
X52070Y119786
X52324Y123546
X52324Y126848
X55372Y127483
X54661Y121082
X51460Y123596
X1067Y9195
X53137Y125171
X49835Y125857
X53086Y119050
X57963Y126543
X57963Y120244
X58852Y121336
X62763Y125400
X63779Y121183
X61697Y119812
X62535Y129540
X58750Y123698
X61189Y127610
X59055Y119101
X62484Y119888
X60198Y119786
X60452Y123546
X60452Y126848
X63500Y127483
X62789Y121082
X59588Y123596
X63779Y122174
X61265Y125171
X57963Y125857
X61214Y119050
X1067Y146101
X1067Y139802
X1956Y140894
X5867Y144958
X6883Y140741
X4801Y139370
X5639Y149098
X1854Y143256
X4293Y147168
X2159Y138659
X5588Y139446
X3302Y139344
X3556Y143104
X3556Y146406
X6604Y147041
X5893Y140640
X2692Y143154
X6883Y141732
X4369Y144729
X1067Y145415
X4318Y138608
X9195Y146101
X9195Y139802
X10084Y140894
X13995Y144958
X15011Y140741
X12929Y139370
X13767Y149098
X9982Y143256
X12421Y147168
X10287Y138659
X13716Y139446
X11430Y139344
X11684Y143104
X11684Y146406
X14732Y147041
X14021Y140640
X10820Y143154
X15011Y141732
X12497Y144729
X9195Y145415
X12446Y138608
X17323Y146101
X17323Y139802
X18212Y140894
X22123Y144958
X23139Y140741
X21057Y139370
X21895Y149098
X18110Y143256
X20549Y147168
X18415Y138659
X21844Y139446
X19558Y139344
X19812Y143104
X19812Y146406
X22860Y147041
X22149Y140640
X18948Y143154
X23139Y141732
X20625Y144729
X17323Y145415
X20574Y138608
X25451Y146101
X25451Y139802
X26340Y140894
X30251Y144958
X31267Y140741
X29185Y139370
X30023Y149098
X26238Y143256
X28677Y147168
X26543Y138659
X29972Y139446
X27686Y139344
X27940Y143104
X27940Y146406
X30988Y147041
X30277Y140640
X27076Y143154
X31267Y141732
X28753Y144729
X25451Y145415
X28702Y138608
X33579Y146101
X33579Y139802
X34468Y140894
X38379Y144958
X39395Y140741
X37313Y139370
X38151Y149098
X34366Y143256
X36805Y147168
X34671Y138659
X38100Y139446
X35814Y139344
X36068Y143104
X36068Y146406
X39116Y147041
X38405Y140640
X35204Y143154
X39395Y141732
X36881Y144729
X33579Y145415
X36830Y138608
X41707Y146101
X41707Y139802
X42596Y140894
X46507Y144958
X47523Y140741
X45441Y139370
X46279Y149098
X42494Y143256
X44933Y147168
X42799Y138659
X46228Y139446
X43942Y139344
X44196Y143104
X44196Y146406
X47244Y147041
X46533Y140640
X43332Y143154
X47523Y141732
X45009Y144729
X41707Y145415
X44958Y138608
X49835Y146101
X49835Y139802
X50724Y140894
X54635Y144958
X55651Y140741
X53569Y139370
X54407Y149098
X50622Y143256
X53061Y147168
X50927Y138659
X54356Y139446
X52070Y139344
X52324Y143104
X52324Y146406
X55372Y147041
X54661Y140640
X51460Y143154
X55651Y141732
X53137Y144729
X49835Y145415
X53086Y138608
X57963Y146101
X57963Y139802
X58852Y140894
X62763Y144958
X63779Y140741
X61697Y139370
X62535Y149098
X58750Y143256
X61189Y147168
X59055Y138659
X62484Y139446
X60198Y139344
X60452Y143104
X60452Y146406
X63500Y147041
X62789Y140640
X59588Y143154
X63779Y141732
X61265Y144729
X57963Y145415
X55651Y122174
X1067Y2896
X1956Y3988
X5867Y8052
X6883Y3835
X4801Y2464
X5639Y12192
X1854Y6350
X4293Y10262
X2159Y1753
X5588Y2540
X3302Y2438
X3556Y6198
X3556Y9500
X6604Y10135
X5893Y3734
X2692Y6248
X6883Y4826
X4369Y7823
X1067Y8509
X4318Y1702
X9195Y9195
X9195Y2896
X10084Y3988
X13995Y8052
X15011Y3835
X12929Y2464
X13767Y12192
X9982Y6350
X12421Y10262
X10287Y1753
X13716Y2540
X11430Y2438
X11684Y6198
X11684Y9500
X14732Y10135
X14021Y3734
X10820Y6248
X15011Y4826
X12497Y7823
X9195Y8509
X12446Y1702
X17323Y9195
X17323Y2896
X18212Y3988
X22123Y8052
X23139Y3835
X21057Y2464
X21895Y12192
X18110Y6350
X20549Y10262
X18415Y1753
X21844Y2540
X19558Y2438
X19812Y6198
X19812Y9500
X22860Y10135
X22149Y3734
X18948Y6248
X23139Y4826
X20625Y7823
X17323Y8509
X20574Y1702
X25451Y9195
X25451Y2896
X26340Y3988
X30251Y8052
X31267Y3835
X29185Y2464
X30023Y12192
X26238Y6350
X28677Y10262
X26543Y1753
X29972Y2540
X27686Y2438
X27940Y6198
X27940Y9500
X30988Y10135
X30277Y3734
X27076Y6248
X31267Y4826
X28753Y7823
X25451Y8509
X28702Y1702
X33579Y9195
X33579Y2896
X34468Y3988
X38379Y8052
X39395Y3835
X37313Y2464
X38151Y12192
X34366Y6350
X36805Y10262
X34671Y1753
X38100Y2540
X35814Y2438
X36068Y6198
X36068Y9500
X39116Y10135
X38405Y3734
X35204Y6248
X39395Y4826
X36881Y7823
X33579Y8509
X36830Y1702
X41707Y9195
X41707Y2896
X42596Y3988
X46507Y8052
X47523Y3835
X45441Y2464
X46279Y12192
X42494Y6350
X44933Y10262
X42799Y1753
X46228Y2540
X43942Y2438
X44196Y6198
X44196Y9500
X47244Y10135
X46533Y3734
X43332Y6248
X47523Y4826
X45009Y7823
X41707Y8509
X44958Y1702
X49835Y9195
X49835Y2896
X50724Y3988
X54635Y8052
X55651Y3835
X53569Y2464
X54407Y12192
X50622Y6350
X53061Y10262
X50927Y1753
X54356Y2540
X52070Y2438
X52324Y6198
X52324Y9500
X55372Y10135
X54661Y3734
X51460Y6248
X55651Y4826
X53137Y7823
X49835Y8509
X53086Y1702
X57963Y9195
X57963Y2896
X58852Y3988
X62763Y8052
X63779Y3835
X61697Y2464
X62535Y12192
X58750Y6350
X61189Y10262
X59055Y1753
X62484Y2540
X60198Y2438
X60452Y6198
X60452Y9500
X63500Y10135
X62789Y3734
X59588Y6248
X63779Y4826
X61265Y7823
X57963Y8509
X61214Y1702
X1067Y28753
X1067Y22454
X1956Y23546
X5867Y27610
X6883Y23393
X4801Y22022
X5639Y31750
X1854Y25908
X4293Y29820
X2159Y21311
X5588Y22098
X3302Y21996
X3556Y25756
X3556Y29058
X6604Y29693
X5893Y23292
X2692Y25806
X6883Y24384
X4369Y27381
X1067Y28067
X4318Y21260
X9195Y28753
X9195Y22454
X10084Y23546
X61214Y138608
M30